# This file uses centimeters as units for non-parametric coordinates.

mtllib asteroid1.mtl
g default
v -1.470643 -1.038335 0.944541
v -0.536907 -1.137236 1.065704
v 0.536907 -1.137236 1.393215
v 1.282561 -1.038335 1.199662
v -1.470643 -0.346111 0.944541
v -0.726434 -0.512892 1.885016
v 0.726434 -0.512892 1.885016
v 1.470643 -0.346111 1.272052
v -1.470643 0.346112 0.944541
v -0.726434 0.512892 1.885016
v 0.726434 0.512892 1.885016
v 1.470643 0.346112 1.272052
v -1.470643 1.038335 0.944541
v -0.536907 1.137236 1.393215
v 0.536907 0.938614 0.889464
v 1.470643 0.839713 0.768301
v -1.610722 1.137236 0.464405
v -0.726434 1.185759 0.628339
v 0.726434 0.987137 0.124588
v 1.610722 0.938614 -0.039346
v -1.610722 1.137236 -0.464405
v -0.726434 1.185759 -0.628339
v 0.726434 1.185759 -0.628339
v 1.610722 1.137236 -0.464405
v -1.470643 1.038335 -1.272052
v -0.536907 1.137236 -0.920097
v 0.536907 1.137236 -1.393215
v 1.470643 1.038335 -1.272052
v -1.470643 0.346111 -1.272052
v -0.726434 0.512892 -1.411898
v 0.726434 0.512892 -1.885016
v 1.470643 0.346111 -1.272052
v -1.470643 -0.346112 -1.272052
v -0.726434 -0.512892 -1.411898
v -0.035304 -0.137490 -1.885016
v 0.708905 0.029291 -1.272052
v -1.470643 -1.038335 -1.272052
v -0.536907 -1.137236 -0.920097
v 0.536907 -1.137236 -1.393215
v 0.708905 -0.662932 -1.272052
v -1.610722 -1.137236 -0.464405
v -0.726434 -1.538677 -0.155220
v 0.726434 -1.538677 -0.628339
v 0.848984 -0.761834 -0.464405
v -1.610722 -1.137236 0.464405
v -0.726434 -1.538677 0.628339
v 0.726434 -1.538677 0.628339
v 1.401815 -1.137236 0.464405
v 1.417564 -0.137490 -0.628339
v 2.179302 -0.512892 0.628339
v 2.179302 0.512892 -0.628339
v 2.179302 0.512892 0.628339
v -2.179302 -0.512892 -0.628339
v -2.026647 -0.512892 0.628339
v -2.179302 0.512892 -0.628339
v -2.026647 0.512892 0.628339
vt 0.611784 0.515138
vt 0.611784 0.253723
vt 0.542076 0.264181
vt 0.556225 0.198164
vt 0.681493 0.504680
vt 0.611784 0.180529
vt 0.461910 0.264182
vt 0.447760 0.198165
vt 0.667344 0.570697
vt 0.392201 0.253725
vt 0.392200 0.180530
vt 0.556224 0.089699
vt 0.611786 0.975220
vt 0.542077 0.985678
vt 0.556226 0.919661
vt 0.622243 0.905511
vt 0.461911 0.985679
vt 0.447761 0.919662
vt 0.392202 0.975221
vt 0.381744 0.905513
vt 0.556226 0.811196
vt 0.622243 0.825345
vt 0.447761 0.811197
vt 0.381744 0.825346
vt 0.542076 0.745179
vt 0.611785 0.755636
vt 0.461910 0.745180
vt 0.392201 0.755638
vt 0.611785 0.734722
vt 0.556225 0.679162
vt 0.611785 0.661527
vt 0.447760 0.679162
vt 0.392201 0.734722
vt 0.392201 0.661527
vt 0.611785 0.494223
vt 0.542076 0.504681
vt 0.556225 0.438663
vt 0.622242 0.424514
vt 0.461910 0.504681
vt 0.447760 0.438663
vt 0.392201 0.494223
vt 0.381743 0.424514
vt 0.556225 0.330199
vt 0.622242 0.344348
vt 0.447760 0.330199
vt 0.381743 0.344348
vt 0.611785 0.274639
vt 0.392201 0.274639
vt 0.322492 0.504681
vt 0.392201 0.515138
vt 0.392201 0.588333
vt 0.336641 0.570698
vt 0.242326 0.504681
vt 0.228177 0.570698
vt 0.172617 0.515139
vt 0.172617 0.588333
vt 0.336642 0.679163
vt 0.228177 0.679163
vt 0.172618 0.661528
vt 0.611784 0.588333
vt 0.761659 0.504680
vt 0.775809 0.570697
vt 0.831368 0.515137
vt 0.831368 0.588332
vt 0.667344 0.679162
vt 0.775809 0.679162
vt 0.831368 0.661526
vt 0.681494 0.745179
vt 0.611785 0.734722
vt 0.761660 0.745179
vt 0.556225 0.570698
vt 0.447760 0.570698
vt 0.611785 0.515138
vt 0.392201 0.515138
vt 0.392201 0.734722
vt 0.322493 0.745180
vt 0.242326 0.745180
vt 0.172618 0.734722
vt 0.611784 0.107334
vt 0.447759 0.089700
vt 0.392200 0.107336
vt 0.542075 0.023682
vt 0.611783 0.034140
vt 0.461908 0.023683
vt 0.392200 0.034141
vt 0.831369 0.734721
vn -0.517248 -0.504624 0.691238
vn -0.267678 -0.652977 0.708498
vn -0.315273 -0.296780 0.901402
vn -0.711868 -0.197874 0.673862
vn 0.077654 -0.674577 0.734109
vn 0.191894 -0.296882 0.935434
vn 0.484941 -0.458282 0.744855
vn 0.599386 -0.163820 0.783517
vn -0.280714 0.311926 0.907690
vn -0.739383 0.133826 0.659851
vn 0.252371 0.406141 0.878270
vn 0.547229 0.462819 0.697380
vn -0.135210 0.713107 0.687893
vn -0.629666 0.349765 0.693676
vn 0.243870 0.815382 0.525052
vn 0.332366 0.822179 0.462119
vn -0.130185 0.979999 0.150509
vn 0.098835 0.991350 0.086358
vn 0.042517 0.996244 0.075434
vn -0.074549 0.996449 0.039141
vn 0.156523 0.984695 0.076664
vn 0.099838 0.987142 0.124831
vn 0.097932 0.988732 0.113221
vn 0.074266 0.972135 0.222345
vn 0.006514 0.999974 -0.003232
vn -0.057504 0.997496 -0.041183
vn 0.067055 0.996861 0.042102
vn 0.075141 0.989826 0.120824
vn -0.032024 0.993363 -0.110469
vn -0.064311 0.986356 -0.151546
vn 0.039781 0.993950 -0.102379
vn 0.097932 0.988732 -0.113221
vn 0.064554 0.341033 -0.937832
vn -0.188476 0.534211 -0.824072
vn -0.243802 0.340219 -0.908191
vn -0.093174 0.130729 -0.987030
vn -0.077175 0.560176 -0.824771
vn 0.073889 0.129899 -0.988770
vn 0.420936 0.369972 -0.828211
vn 0.520448 -0.128149 -0.844223
vn -0.235769 -0.319641 -0.917738
vn -0.093174 -0.130729 -0.987030
vn -0.143675 -0.168776 -0.975127
vn 0.548550 -0.500285 -0.669931
vn -0.186671 -0.531082 -0.826502
vn 0.064554 -0.341033 -0.937832
vn -0.050084 -0.499580 -0.864819
vn 0.630500 -0.012354 -0.776091
vn -0.138570 -0.934973 -0.326532
vn -0.159160 -0.898941 -0.408135
vn -0.155433 -0.978467 -0.135804
vn -0.255487 -0.946155 -0.198788
vn 0.384605 -0.777211 -0.498018
vn 0.267263 -0.915725 -0.300032
vn 0.953035 -0.166756 -0.252817
vn 0.879820 -0.383411 -0.280914
vn -0.153487 -0.965877 0.208622
vn -0.391725 -0.903328 0.174787
vn 0.230931 -0.962114 0.144940
vn 0.700480 -0.711735 -0.052544
vn -0.133391 -0.822732 0.552557
vn -0.301066 -0.787586 0.537651
vn 0.096730 -0.860764 0.499729
vn 0.389342 -0.846739 0.362555
vn 0.625733 -0.556481 -0.546615
vn 0.760680 -0.392855 -0.516751
vn 0.636165 -0.564392 -0.526076
vn 0.691867 -0.544428 -0.474256
vn 0.682257 -0.686559 -0.251320
vn 0.859539 -0.510400 -0.026175
vn 0.652414 -0.568449 0.501221
vn 0.696914 -0.233656 0.678024
vn 0.676137 -0.409798 -0.612295
vn 0.923142 -0.049348 -0.381279
vn 0.968203 0.143632 0.204821
vn 0.667280 0.222652 0.710749
vn 0.760680 0.392855 -0.516751
vn 0.756827 0.612511 -0.228129
vn 0.615855 0.770994 0.162145
vn 0.447584 0.796019 0.407459
vn -0.760680 -0.392855 -0.516751
vn -0.811653 -0.563565 -0.153666
vn -0.948207 -0.234545 -0.214225
vn -0.721840 -0.144353 -0.676837
vn -0.794215 -0.568488 0.214579
vn -0.917092 -0.232473 0.323880
vn -0.668035 -0.296051 0.682703
vn -0.556527 -0.091991 0.825721
vn -0.948207 0.234545 -0.214225
vn -0.721840 0.144353 -0.676837
vn -0.917092 0.232473 0.323880
vn -0.556527 0.091991 0.825721
vn -0.811653 0.563565 -0.153666
vn -0.760680 0.392855 -0.516751
vn -0.794215 0.568488 0.214579
vn -0.668035 0.296051 0.682703
s 1
g pCube1
usemtl lambert2SG
f 1/2/1 2/3/2 6/4/3 5/6/4
f 2/3/2 3/7/5 7/8/6 6/4/3
f 3/7/5 4/10/7 8/11/8 7/8/6
f 5/6/4 6/4/3 10/12/9 9/79/10
f 6/4/3 7/8/6 11/80/11 10/12/9
f 7/8/6 8/11/8 12/81/12 11/80/11
f 9/79/10 10/12/9 14/82/13 13/83/14
f 10/12/9 11/80/11 15/84/15 14/82/13
f 11/80/11 12/81/12 16/85/16 15/84/15
s 2
f 13/13/17 14/14/18 18/15/19 17/16/20
f 14/14/18 15/17/21 19/18/22 18/15/19
f 15/17/21 16/19/23 20/20/24 19/18/22
f 17/16/20 18/15/19 22/21/25 21/22/26
f 18/15/19 19/18/22 23/23/27 22/21/25
f 19/18/22 20/20/24 24/24/28 23/23/27
f 21/22/26 22/21/25 26/25/29 25/26/30
f 22/21/25 23/23/27 27/27/31 26/25/29
f 23/23/27 24/24/28 28/28/32 27/27/31
s 3
f 25/29/33 26/25/34 30/30/35 29/31/36
f 26/25/34 27/27/37 31/32/38 30/30/35
f 27/27/37 28/33/39 32/34/40 31/32/38
f 29/31/36 30/30/35 34/71/41 33/60/42
f 30/30/35 31/32/38 35/72/43 34/71/41
f 31/32/38 32/34/40 36/51/44 35/72/43
f 33/60/42 34/71/41 38/36/45 37/73/46
f 34/71/41 35/72/43 39/39/47 38/36/45
f 35/72/43 36/51/44 40/74/48 39/39/47
s 4
f 37/35/49 38/36/50 42/37/51 41/38/52
f 38/36/50 39/39/53 43/40/54 42/37/51
f 39/39/53 40/41/55 44/42/56 43/40/54
f 41/38/52 42/37/51 46/43/57 45/44/58
f 42/37/51 43/40/54 47/45/59 46/43/57
f 43/40/54 44/42/56 48/46/60 47/45/59
f 45/44/58 46/43/57 2/3/61 1/47/62
f 46/43/57 47/45/59 3/7/63 2/3/61
f 47/45/59 48/46/60 4/48/64 3/7/63
s 5
f 44/49/65 40/50/66 36/51/67 49/52/68
f 48/53/69 44/49/65 49/52/68 50/54/70
f 4/55/71 48/53/69 50/54/70 8/56/72
f 49/52/68 36/51/67 32/34/73 51/57/74
f 50/54/70 49/52/68 51/57/74 52/58/75
f 8/56/72 50/54/70 52/58/75 12/59/76
f 51/57/74 32/34/73 28/75/77 24/76/78
f 52/58/75 51/57/74 24/76/78 20/77/79
f 12/59/76 52/58/75 20/77/79 16/78/80
s 6
f 37/1/81 41/5/82 53/9/83 33/60/84
f 41/5/82 45/61/85 54/62/86 53/9/83
f 45/61/85 1/63/87 5/64/88 54/62/86
f 33/60/84 53/9/83 55/65/89 29/31/90
f 53/9/83 54/62/86 56/66/91 55/65/89
f 54/62/86 5/64/88 9/67/92 56/66/91
f 29/31/90 55/65/89 21/68/93 25/69/94
f 55/65/89 56/66/91 17/70/95 21/68/93
f 56/66/91 9/67/92 13/86/96 17/70/95
