# This file uses centimeters as units for non-parametric coordinates.

mtllib spaceship.mtl
g default
v 1.566149 0.613340 -0.199286
v 1.566149 0.521738 -0.379065
v 1.566149 0.379065 -0.521738
v 1.566149 0.199286 -0.613340
v 1.566149 -0.000000 -0.644904
v 1.566149 -0.199286 -0.613340
v 1.566149 -0.379065 -0.521738
v 1.566149 -0.521738 -0.379065
v 1.566149 -0.613340 -0.199286
v 1.566149 -0.644904 0.000000
v 1.566149 -0.613340 0.199286
v 1.566149 -0.521738 0.379065
v 1.566149 -0.379065 0.521738
v 1.566149 -0.199286 0.613340
v 1.566149 -0.000000 0.644904
v 1.566149 0.199286 0.613340
v 1.566149 0.379065 0.521738
v 1.566149 0.521738 0.379065
v 1.566149 0.613340 0.199286
v 1.566149 0.644904 0.000000
v -0.906593 0.000000 0.000000
v 1.176308 0.442411 -0.000000
v 1.176308 0.420758 -0.136713
v 1.176308 0.420757 0.136712
v 1.176308 0.357918 0.260042
v 1.176308 0.260042 0.357918
v 1.176308 0.136712 0.420757
v 1.176308 -0.000000 0.442411
v 1.176308 -0.136712 0.420757
v 1.176308 -0.260042 0.357918
v 1.176308 -0.357918 0.260042
v 1.176308 -0.420758 0.136712
v 1.176308 -0.442411 0.000000
v 1.176308 -0.420758 -0.136712
v 1.176308 -0.357918 -0.260042
v 1.176308 -0.260042 -0.357918
v 1.176308 -0.136712 -0.420758
v 1.176308 0.000000 -0.442411
v 1.176308 0.136712 -0.420758
v 1.176308 0.260043 -0.357918
v 1.176308 0.357918 -0.260043
vt 0.737764 0.172746
vt 0.702254 0.103054
vt 0.646946 0.047746
vt 0.577254 0.012236
vt 0.500000 -0.000000
vt 0.422746 0.012236
vt 0.353054 0.047746
vt 0.297746 0.103054
vt 0.262236 0.172746
vt 0.250000 0.250000
vt 0.262236 0.327254
vt 0.297746 0.396946
vt 0.353054 0.452254
vt 0.422746 0.487764
vt 0.500000 0.500000
vt 0.577254 0.487764
vt 0.646946 0.452254
vt 0.702254 0.396946
vt 0.737764 0.327254
vt 0.750000 0.250000
vt 0.250000 0.500000
vt 0.275000 0.500000
vt 0.300000 0.500000
vt 0.325000 0.500000
vt 0.350000 0.500000
vt 0.375000 0.500000
vt 0.400000 0.500000
vt 0.425000 0.500000
vt 0.450000 0.500000
vt 0.475000 0.500000
vt 0.500000 0.500000
vt 0.525000 0.500000
vt 0.550000 0.500000
vt 0.575000 0.500000
vt 0.600000 0.500000
vt 0.625000 0.500000
vt 0.650000 0.500000
vt 0.675000 0.500000
vt 0.700000 0.500000
vt 0.725000 0.500000
vt 0.750000 0.500000
vt 0.500000 1.000000
vt 0.737764 0.172746
vt 0.750000 0.250000
vt 0.737764 0.327254
vt 0.702254 0.396946
vt 0.646946 0.452254
vt 0.577254 0.487764
vt 0.500000 0.500000
vt 0.422746 0.487764
vt 0.353054 0.452254
vt 0.297746 0.396946
vt 0.262236 0.327254
vt 0.250000 0.250000
vt 0.262236 0.172746
vt 0.297746 0.103054
vt 0.353054 0.047746
vt 0.422746 0.012236
vt 0.500000 -0.000000
vt 0.577254 0.012236
vt 0.646946 0.047746
vt 0.702254 0.103054
vn 1.000000 -0.000000 -0.000000
vn 1.000000 -0.000000 -0.000000
vn 1.000000 -0.000000 -0.000000
vn 1.000000 -0.000000 -0.000000
vn 1.000000 -0.000000 -0.000000
vn 1.000000 -0.000000 -0.000000
vn 1.000000 -0.000000 -0.000000
vn 1.000000 -0.000000 -0.000000
vn 1.000000 -0.000000 -0.000000
vn 1.000000 -0.000000 -0.000000
vn 1.000000 -0.000000 -0.000000
vn 1.000000 -0.000000 -0.000000
vn 1.000000 -0.000000 -0.000000
vn 1.000000 -0.000000 -0.000000
vn 1.000000 -0.000000 -0.000000
vn 1.000000 -0.000000 -0.000000
vn 1.000000 -0.000000 -0.000000
vn 1.000000 -0.000000 -0.000000
vn 1.000000 -0.000000 -0.000000
vn 1.000000 -0.000000 -0.000000
vn -0.252364 0.920273 -0.299014
vn -0.252364 0.782831 -0.568760
vn -1.000000 0.000001 -0.000009
vn -0.252364 0.568760 -0.782831
vn -0.252364 0.299015 -0.920273
vn -0.252363 0.000000 -0.967632
vn -0.252363 -0.299015 -0.920273
vn -0.252363 -0.568760 -0.782831
vn -0.252363 -0.782831 -0.568760
vn -0.252363 -0.920273 -0.299015
vn -0.252363 -0.967633 0.000000
vn -0.252363 -0.920273 0.299015
vn -0.252363 -0.782831 0.568760
vn -0.252363 -0.568760 0.782831
vn -0.252363 -0.299015 0.920273
vn -0.252363 -0.000000 0.967633
vn -0.252363 0.299015 0.920273
vn -0.252363 0.568760 0.782831
vn -0.252363 0.782831 0.568760
vn -0.252363 0.920273 0.299015
vn -0.252363 0.967633 0.000001
vn 0.460950 -0.843993 0.274229
vn 0.460950 -0.887426 -0.000001
vn 0.460950 -0.887426 -0.000001
vn 0.460950 -0.843993 0.274229
vn 0.460950 -0.843992 -0.274230
vn 0.460950 -0.843992 -0.274230
vn 0.460950 -0.717943 -0.521616
vn 0.460950 -0.717943 -0.521616
vn 0.460950 -0.521616 -0.717943
vn 0.460950 -0.521616 -0.717943
vn 0.460950 -0.274230 -0.843992
vn 0.460950 -0.274230 -0.843992
vn 0.460950 0.000000 -0.887426
vn 0.460950 -0.000000 -0.887426
vn 0.460950 0.274230 -0.843992
vn 0.460950 0.274230 -0.843992
vn 0.460950 0.521616 -0.717943
vn 0.460950 0.521616 -0.717943
vn 0.460950 0.717943 -0.521616
vn 0.460950 0.717943 -0.521616
vn 0.460950 0.843992 -0.274230
vn 0.460950 0.843992 -0.274230
vn 0.460950 0.887426 0.000000
vn 0.460950 0.887426 0.000000
vn 0.460950 0.843992 0.274230
vn 0.460950 0.843992 0.274230
vn 0.460950 0.717943 0.521616
vn 0.460950 0.717943 0.521616
vn 0.460950 0.521616 0.717943
vn 0.460950 0.521616 0.717943
vn 0.460950 0.274230 0.843992
vn 0.460950 0.274230 0.843992
vn 0.460950 0.000000 0.887426
vn 0.460950 0.000000 0.887426
vn 0.460950 -0.274230 0.843992
vn 0.460950 -0.274230 0.843992
vn 0.460950 -0.521616 0.717943
vn 0.460950 -0.521616 0.717943
vn 0.460950 -0.717943 0.521616
vn 0.460950 -0.717943 0.521616
s off
g pCone1
usemtl lambert2SG
f 23/43/1 22/44/2 24/45/3 25/46/4 26/47/5 27/48/6 28/49/7 29/50/8 30/51/9 31/52/10 32/53/11 33/54/12 34/55/13 35/56/14 36/57/15 37/58/16 38/59/17 39/60/18 40/61/19 41/62/20
s 1
f 1/21/21 2/22/22 21/42/23
f 2/22/22 3/23/24 21/42/23
f 3/23/24 4/24/25 21/42/23
f 4/24/25 5/25/26 21/42/23
f 5/25/26 6/26/27 21/42/23
f 6/26/27 7/27/28 21/42/23
f 7/27/28 8/28/29 21/42/23
f 8/28/29 9/29/30 21/42/23
f 9/29/30 10/30/31 21/42/23
f 10/30/31 11/31/32 21/42/23
f 11/31/32 12/32/33 21/42/23
f 12/32/33 13/33/34 21/42/23
f 13/33/34 14/34/35 21/42/23
f 14/34/35 15/35/36 21/42/23
f 15/35/36 16/36/37 21/42/23
f 16/36/37 17/37/38 21/42/23
f 17/37/38 18/38/39 21/42/23
f 18/38/39 19/39/40 21/42/23
f 19/39/40 20/40/41 21/42/23
f 20/40/41 1/41/21 21/42/23
s 2
f 1/1/42 20/20/43 22/44/44 23/43/45
f 20/20/43 19/19/46 24/45/47 22/44/44
f 19/19/46 18/18/48 25/46/49 24/45/47
f 18/18/48 17/17/50 26/47/51 25/46/49
f 17/17/50 16/16/52 27/48/53 26/47/51
f 16/16/52 15/15/54 28/49/55 27/48/53
f 15/15/54 14/14/56 29/50/57 28/49/55
f 14/14/56 13/13/58 30/51/59 29/50/57
f 13/13/58 12/12/60 31/52/61 30/51/59
f 12/12/60 11/11/62 32/53/63 31/52/61
f 11/11/62 10/10/64 33/54/65 32/53/63
f 10/10/64 9/9/66 34/55/67 33/54/65
f 9/9/66 8/8/68 35/56/69 34/55/67
f 8/8/68 7/7/70 36/57/71 35/56/69
f 7/7/70 6/6/72 37/58/73 36/57/71
f 6/6/72 5/5/74 38/59/75 37/58/73
f 5/5/74 4/4/76 39/60/77 38/59/75
f 4/4/76 3/3/78 40/61/79 39/60/77
f 3/3/78 2/2/80 41/62/81 40/61/79
f 2/2/80 1/1/42 23/43/45 41/62/81
g default
v 0.944179 0.237901 -1.404834
v 1.000269 -0.234589 -0.000000
v 0.944179 0.237901 1.404834
v 0.888089 0.827840 0.000000
v -2.519882 0.135766 0.000000
vt 0.500000 0.000000
vt 0.250000 0.250000
vt 0.500000 0.500000
vt 0.750000 0.250000
vt 0.250000 0.500000
vt 0.375000 0.500000
vt 0.500000 0.500000
vt 0.625000 0.500000
vt 0.750000 0.500000
vt 0.500000 1.000000
vn 0.994472 0.105005 0.000000
vn 0.994472 0.105005 0.000000
vn 0.994472 0.105005 0.000000
vn 0.994472 0.105005 0.000000
vn -0.099353 -0.944329 -0.313641
vn -0.099353 -0.944329 -0.313641
vn -0.099353 -0.944329 -0.313641
vn -0.099353 -0.944329 0.313641
vn -0.099353 -0.944330 0.313641
vn -0.099353 -0.944330 0.313641
vn -0.183520 0.903707 0.386826
vn -0.183520 0.903707 0.386826
vn -0.183520 0.903707 0.386826
vn -0.183520 0.903707 -0.386826
vn -0.183520 0.903707 -0.386826
vn -0.183520 0.903707 -0.386826
s off
g pPyramid2
usemtl lambert3SG
f 42/63/82 45/66/83 44/65/84 43/64/85
f 42/67/86 43/68/87 46/72/88
f 43/68/89 44/69/90 46/72/91
f 44/69/92 45/70/93 46/72/94
f 45/70/95 42/71/96 46/72/97
g default
v 1.037553 0.189658 -1.654856
v 1.037553 -0.496531 -1.022757
v 1.037553 -0.496531 1.022757
v 1.037553 0.189658 1.654856
v 1.037553 0.613746 0.000000
v -3.493014 0.000000 0.000000
vt 0.577254 0.012236
vt 0.297746 0.103054
vt 0.297746 0.396946
vt 0.577254 0.487764
vt 0.750000 0.250000
vt 0.250000 0.500000
vt 0.350000 0.500000
vt 0.450000 0.500000
vt 0.550000 0.500000
vt 0.650000 0.500000
vt 0.750000 0.500000
vt 0.500000 1.000000
vn 1.000000 -0.000000 0.000000
vn 1.000000 -0.000000 0.000000
vn 1.000000 -0.000000 0.000000
vn 1.000000 -0.000000 0.000000
vn 1.000000 -0.000000 0.000000
vn -0.233640 -0.658772 -0.715145
vn -0.233640 -0.658772 -0.715145
vn -0.233640 -0.658772 -0.715145
vn -0.108943 -0.994048 -0.000000
vn -0.108943 -0.994048 -0.000000
vn -0.108943 -0.994048 -0.000000
vn -0.233640 -0.658772 0.715145
vn -0.233640 -0.658772 0.715145
vn -0.233640 -0.658772 0.715145
vn -0.130112 0.960462 0.246136
vn -0.130112 0.960462 0.246137
vn -0.130112 0.960462 0.246137
vn -0.130112 0.960462 -0.246136
vn -0.130112 0.960462 -0.246136
vn -0.130112 0.960462 -0.246136
s off
g pPyramid1
usemtl initialShadingGroup
f 47/73/98 51/77/99 50/76/100 49/75/101 48/74/102
f 47/78/103 48/79/104 52/84/105
f 48/79/106 49/80/107 52/84/108
f 49/80/109 50/81/110 52/84/111
f 50/81/112 51/82/113 52/84/114
f 51/82/115 47/83/116 52/84/117
