# This file uses centimeters as units for non-parametric coordinates.

mtllib asteroid4.mtl
g default
v 0.417966 -1.071641 -0.440789
v -0.000000 -1.071641 -0.613916
v -0.417966 -1.071641 -0.440789
v -0.256808 -1.071641 -0.206924
v -0.083680 -1.071641 0.211043
v -0.000000 -1.071641 0.568271
v 0.161167 -1.071641 0.334698
v 0.334294 -1.071641 -0.083268
v 0.835933 -1.071641 -0.858755
v -0.000000 -1.071641 -1.205010
v -0.835933 -1.071641 -0.858755
v -0.847901 -1.071641 -0.206924
v -0.501647 -1.299162 0.779767
v -0.000000 -1.071641 1.159365
v 0.579134 -1.071641 0.752664
v 0.925388 -1.071641 -0.083268
v 0.662024 -0.333333 -0.767553
v -0.029555 -0.670192 -1.275017
v -0.501647 -0.511037 -0.892098
v -0.847901 -0.511037 -0.056165
v -1.081296 -0.652804 1.202667
v 0.211717 -0.389519 1.455548
v 1.293017 -0.760782 1.219286
v 1.211717 -0.333333 0.000000
v 0.918824 -0.037929 -0.495478
v 0.304731 -0.195982 -1.331593
v -0.402376 -0.195982 -1.038700
v -1.293522 0.125750 0.121971
v -1.081296 0.085617 0.906088
v -0.000000 0.201623 0.999665
v 1.126377 0.201623 0.620800
v 1.211717 -0.164820 0.017683
v 0.707107 0.628738 -0.495478
v 0.334286 1.000000 -1.184101
v -1.171456 1.119919 -1.018091
v -1.293522 1.119919 -0.042985
v -0.899129 0.636224 0.406228
v -0.000000 0.973082 0.999665
v 0.914660 0.973082 0.620800
v 1.293523 0.973082 -0.293858
v 0.457330 0.748657 -0.288686
v 0.334286 0.748657 -0.662217
v -0.457330 1.119919 -0.500315
v -0.646761 1.119919 -0.042985
v -0.441803 0.636224 -0.051100
v -0.000000 0.601820 0.564533
v 0.457328 0.973082 0.163471
v 0.646761 0.973082 -0.293858
v -0.000000 -1.071641 -0.022822
v -0.000000 0.748657 0.168643
vt 0.555243 0.101007
vt 0.500000 0.078125
vt 0.444757 0.101007
vt 0.421875 0.156250
vt 0.444757 0.211493
vt 0.500000 0.234375
vt 0.555243 0.211493
vt 0.578125 0.156250
vt 0.610485 0.045765
vt 0.500000 0.000000
vt 0.389515 0.045765
vt 0.343750 0.156250
vt 0.389515 0.266735
vt 0.500000 0.312500
vt 0.610485 0.266735
vt 0.656250 0.156250
vt 0.375000 0.312500
vt 0.406250 0.312500
vt 0.437500 0.312500
vt 0.468750 0.312500
vt 0.500000 0.312500
vt 0.531250 0.312500
vt 0.562500 0.312500
vt 0.593750 0.312500
vt 0.625000 0.312500
vt 0.375000 0.437813
vt 0.406250 0.437813
vt 0.437500 0.437813
vt 0.468750 0.437813
vt 0.500000 0.437813
vt 0.531250 0.437813
vt 0.562500 0.437813
vt 0.593750 0.437813
vt 0.625000 0.437813
vt 0.375000 0.563127
vt 0.406250 0.563127
vt 0.437500 0.563127
vt 0.468750 0.563127
vt 0.500000 0.563127
vt 0.531250 0.563127
vt 0.562500 0.563127
vt 0.593750 0.563127
vt 0.625000 0.563127
vt 0.375000 0.688440
vt 0.406250 0.688440
vt 0.437500 0.688440
vt 0.468750 0.688440
vt 0.500000 0.688440
vt 0.531250 0.688440
vt 0.562500 0.688440
vt 0.593750 0.688440
vt 0.625000 0.688440
vt 0.610485 0.733265
vt 0.500000 0.687500
vt 0.389515 0.733265
vt 0.343750 0.843750
vt 0.389515 0.954235
vt 0.500000 1.000000
vt 0.610485 0.954235
vt 0.656250 0.843750
vt 0.555243 0.788507
vt 0.500000 0.765625
vt 0.444757 0.788507
vt 0.421875 0.843750
vt 0.444757 0.898993
vt 0.500000 0.921875
vt 0.555243 0.898993
vt 0.578125 0.843750
vt 0.500000 0.150000
vt 0.500000 0.837500
vn 0.000000 -1.000000 0.000000
vn 0.000000 -1.000000 0.000000
vn 0.000000 -1.000000 0.000000
vn 0.000000 -1.000000 0.000000
vn 0.000000 -1.000000 0.000000
vn 0.000000 -1.000000 0.000000
vn 0.083188 -0.984858 -0.152102
vn 0.068392 -0.989790 -0.125050
vn 0.158898 -0.975302 -0.153420
vn 0.255371 -0.959397 -0.119766
vn 0.219404 -0.975442 -0.019360
vn 0.211663 -0.977164 -0.018677
vn 0.000000 -1.000000 0.000000
vn 0.000000 -1.000000 0.000000
vn 0.000000 -1.000000 0.000000
vn 0.000000 -1.000000 0.000000
vn 0.468537 0.099964 -0.877770
vn 0.468537 0.099964 -0.877770
vn 0.546619 -0.012861 -0.837283
vn 0.649484 -0.195572 -0.734794
vn -0.480670 0.058258 -0.874964
vn -0.480670 0.058258 -0.874964
vn -0.484842 0.053922 -0.872938
vn -0.485741 0.052984 -0.872496
vn -0.927463 0.299907 -0.223314
vn -0.927463 0.299907 -0.223314
vn -0.910013 -0.089614 -0.404779
vn -0.908718 -0.094424 -0.406591
vn -0.905598 -0.423452 -0.024123
vn -0.905598 -0.423452 -0.024123
vn -0.928272 -0.370645 -0.030554
vn -0.925526 -0.377514 -0.029731
vn -0.161225 -0.503957 0.848548
vn -0.161225 -0.503957 0.848548
vn -0.209244 0.100420 0.972694
vn -0.208997 0.084274 0.974278
vn 0.129187 -0.677013 0.724544
vn 0.129187 -0.677013 0.724544
vn 0.309938 0.199389 0.929614
vn 0.311452 0.224952 0.923252
vn 0.734948 -0.676564 -0.045965
vn 0.734948 -0.676564 -0.045965
vn 0.941054 -0.337375 -0.024397
vn 0.871713 -0.488830 -0.034086
vn 0.923588 -0.025114 -0.382563
vn 0.923588 -0.025114 -0.382563
vn 0.913966 -0.035545 -0.404231
vn 0.899586 -0.049993 -0.433874
vn 0.827797 -0.067287 -0.556978
vn 0.840185 0.065009 -0.538390
vn -0.252449 0.012663 -0.967527
vn -0.236935 0.010526 -0.971469
vn -0.869119 -0.310237 -0.385209
vn -0.863004 -0.306170 -0.401852
vn -0.979468 -0.173240 0.103105
vn -0.973604 -0.046370 0.223483
vn -0.277328 0.423894 0.862208
vn -0.271019 0.426841 0.862760
vn 0.336722 0.387216 0.858302
vn 0.339268 0.359935 0.869105
vn 0.982598 0.131212 0.131474
vn 0.975209 0.122789 0.184095
vn 0.701190 -0.093756 -0.706783
vn 0.710604 -0.095049 -0.697143
vn 0.840833 0.123954 -0.526911
vn 0.840833 0.123954 -0.526911
vn -0.202754 0.005839 -0.979212
vn -0.202754 0.005839 -0.979212
vn -0.875154 -0.314344 -0.367821
vn -0.875154 -0.314344 -0.367821
vn -0.789966 0.318611 0.523871
vn -0.789966 0.318611 0.523871
vn -0.379040 0.372505 0.847094
vn -0.379040 0.372505 0.847094
vn 0.347642 0.047703 0.936413
vn 0.347642 0.047703 0.936413
vn 0.957647 0.108666 0.266655
vn 0.957647 0.108666 0.266655
vn 0.641113 -0.085513 -0.762668
vn 0.641113 -0.085513 -0.762668
vn 0.019396 0.883264 -0.468474
vn 0.218529 0.971236 0.094580
vn 0.250965 0.958606 0.134503
vn -0.142729 0.912494 -0.383383
vn 0.104014 0.993781 0.039752
vn 0.195720 0.977643 0.076860
vn 0.113617 0.954910 0.274297
vn 0.171302 0.913981 0.367824
vn 0.244488 0.949070 0.198724
vn 0.100298 0.927267 0.360717
vn -0.162392 0.949828 -0.267312
vn -0.121078 0.962336 -0.243412
vn -0.181038 0.978480 -0.099012
vn -0.208455 0.974157 -0.086977
vn -0.024217 0.987580 -0.155240
vn -0.100940 0.941734 -0.320855
vn 0.000000 -1.000000 -0.000000
vn -0.028196 0.953755 0.299260
s 1
g pCylinder1
usemtl initialShadingGroup
f 1/1/1 2/2/2 10/10/3 9/9/4
f 2/2/2 3/3/5 11/11/6 10/10/3
f 3/3/5 4/4/7 12/12/8 11/11/6
f 4/4/7 5/5/9 13/13/10 12/12/8
f 5/5/9 6/6/11 14/14/12 13/13/10
f 6/6/11 7/7/13 15/15/14 14/14/12
f 7/7/13 8/8/15 16/16/16 15/15/14
f 8/8/15 1/1/1 9/9/4 16/16/16
s 2
f 9/17/17 10/18/18 18/27/19 17/26/20
s 3
f 10/18/21 11/19/22 19/28/23 18/27/24
s 4
f 11/19/25 12/20/26 20/29/27 19/28/28
s 5
f 12/20/29 13/21/30 21/30/31 20/29/32
s 6
f 13/21/33 14/22/34 22/31/35 21/30/36
s 7
f 14/22/37 15/23/38 23/32/39 22/31/40
s 8
f 15/23/41 16/24/42 24/33/43 23/32/44
s 9
f 16/24/45 9/25/46 17/34/47 24/33/48
s 2
f 17/26/20 18/27/19 26/36/49 25/35/50
s 3
f 18/27/24 19/28/23 27/37/51 26/36/52
s 4
f 19/28/28 20/29/27 28/38/53 27/37/54
s 5
f 20/29/32 21/30/31 29/39/55 28/38/56
s 6
f 21/30/36 22/31/35 30/40/57 29/39/58
s 7
f 22/31/40 23/32/39 31/41/59 30/40/60
s 8
f 23/32/44 24/33/43 32/42/61 31/41/62
s 9
f 24/33/48 17/34/47 25/43/63 32/42/64
s 2
f 25/35/50 26/36/49 34/45/65 33/44/66
s 3
f 26/36/52 27/37/51 35/46/67 34/45/68
s 4
f 27/37/54 28/38/53 36/47/69 35/46/70
s 5
f 28/38/56 29/39/55 37/48/71 36/47/72
s 6
f 29/39/58 30/40/57 38/49/73 37/48/74
s 7
f 30/40/60 31/41/59 39/50/75 38/49/76
s 8
f 31/41/62 32/42/61 40/51/77 39/50/78
s 9
f 32/42/64 25/43/63 33/52/79 40/51/80
s 10
f 33/59/81 34/58/82 42/66/83 41/67/84
f 34/58/82 35/57/85 43/65/86 42/66/83
f 35/57/85 36/56/87 44/64/88 43/65/86
f 36/56/87 37/55/89 45/63/90 44/64/88
f 37/55/89 38/54/91 46/62/92 45/63/90
f 38/54/91 39/53/93 47/61/94 46/62/92
f 39/53/93 40/60/95 48/68/96 47/61/94
f 40/60/95 33/59/81 41/67/84 48/68/96
s 1
f 2/2/2 1/1/1 49/69/97
f 3/3/5 2/2/2 49/69/97
f 4/4/7 3/3/5 49/69/97
f 5/5/9 4/4/7 49/69/97
f 6/6/11 5/5/9 49/69/97
f 7/7/13 6/6/11 49/69/97
f 8/8/15 7/7/13 49/69/97
f 1/1/1 8/8/15 49/69/97
s 10
f 41/67/84 42/66/83 50/70/98
f 42/66/83 43/65/86 50/70/98
f 43/65/86 44/64/88 50/70/98
f 44/64/88 45/63/90 50/70/98
f 45/63/90 46/62/92 50/70/98
f 46/62/92 47/61/94 50/70/98
f 47/61/94 48/68/96 50/70/98
f 48/68/96 41/67/84 50/70/98
