# This file uses centimeters as units for non-parametric coordinates.

mtllib asteroid3.mtl
g default
v -1.451518 -1.600341 1.025477
v -0.610970 -1.869028 1.539562
v 0.436143 -1.387403 0.900773
v 1.468671 -1.387403 0.900773
v -1.776244 -0.613507 1.187862
v -0.610970 -0.613507 1.539562
v 0.332280 -0.186490 1.094084
v 1.252384 -0.613507 1.539562
v -1.707434 0.568908 1.062169
v -0.610970 0.642014 1.539562
v 0.640260 0.642014 1.539562
v 1.278644 0.119669 1.291418
v -1.464393 1.304372 1.062169
v -0.610970 1.380827 1.257815
v 0.006449 1.113102 1.191061
v 0.741512 1.113102 1.088982
v -1.198739 0.907500 0.360195
v -0.610970 1.671971 0.513187
v 0.640260 1.671971 0.513187
v 1.149195 1.113102 0.253676
v -1.113394 0.891968 -0.348391
v -0.610970 1.671971 -0.513187
v 0.640260 1.671971 -0.513187
v 1.174296 1.671971 -0.513187
v -1.223686 1.048423 -0.923193
v -0.740757 1.452249 -1.118010
v -0.008470 1.671971 -1.539562
v 0.958648 1.440932 -1.313289
v -1.445655 0.602290 -0.923193
v -0.950249 0.602290 -0.923193
v 0.078578 0.602290 -0.923193
v 1.087994 0.568908 -1.403077
v -1.440170 -0.561451 -1.283964
v -1.164998 -0.561451 -1.403077
v 0.249736 -0.660755 -0.846721
v 0.876633 -0.731337 -0.881650
v -1.337790 -1.283678 -1.220064
v -0.992435 -1.641558 -1.103644
v 0.130169 -1.424541 -0.924542
v 1.059766 -1.424541 -0.924542
v -1.380820 -1.600341 -0.578930
v -0.610970 -1.869028 -0.513187
v 0.690291 -1.739782 -0.425565
v 1.187480 -1.739782 -0.425565
v -1.648084 -1.600341 0.328332
v -0.610970 -1.869028 0.513187
v 0.690291 -1.739782 0.421411
v 1.722819 -1.739782 0.421411
v 0.892221 -0.519390 -0.327359
v 1.438418 -0.546694 0.343647
v 0.789643 0.569177 -0.348391
v 1.046540 0.175315 0.216374
v -1.514664 -0.319548 -0.645448
v -1.514664 -0.319548 0.278608
v -1.577985 0.602290 -0.425876
v -1.397151 0.532652 0.360195
vt 0.375000 0.000000
vt 0.458333 0.000000
vt 0.541667 0.000000
vt 0.625000 0.000000
vt 0.375000 0.083333
vt 0.458333 0.083333
vt 0.541667 0.083333
vt 0.625000 0.083333
vt 0.375000 0.166667
vt 0.458333 0.166667
vt 0.541667 0.166667
vt 0.625000 0.166667
vt 0.375000 0.250000
vt 0.458333 0.250000
vt 0.541667 0.250000
vt 0.625000 0.250000
vt 0.375000 0.333333
vt 0.458333 0.333333
vt 0.541667 0.333333
vt 0.625000 0.333333
vt 0.375000 0.416667
vt 0.458333 0.416667
vt 0.541667 0.416667
vt 0.625000 0.416667
vt 0.375000 0.500000
vt 0.458333 0.500000
vt 0.541667 0.500000
vt 0.625000 0.500000
vt 0.375000 0.583333
vt 0.458333 0.583333
vt 0.541667 0.583333
vt 0.625000 0.583333
vt 0.375000 0.666667
vt 0.458333 0.666667
vt 0.541667 0.666667
vt 0.625000 0.666667
vt 0.375000 0.750000
vt 0.458333 0.750000
vt 0.541667 0.750000
vt 0.625000 0.750000
vt 0.375000 0.833333
vt 0.458333 0.833333
vt 0.541667 0.833333
vt 0.625000 0.833333
vt 0.375000 0.916667
vt 0.458333 0.916667
vt 0.541667 0.916667
vt 0.625000 0.916667
vt 0.375000 1.000000
vt 0.458333 1.000000
vt 0.541667 1.000000
vt 0.625000 1.000000
vt 0.875000 0.000000
vt 0.791667 0.000000
vt 0.708333 0.000000
vt 0.875000 0.083333
vt 0.791667 0.083333
vt 0.708333 0.083333
vt 0.875000 0.166667
vt 0.791667 0.166667
vt 0.708333 0.166667
vt 0.875000 0.250000
vt 0.791667 0.250000
vt 0.708333 0.250000
vt 0.125000 0.000000
vt 0.208333 0.000000
vt 0.291667 0.000000
vt 0.125000 0.083333
vt 0.208333 0.083333
vt 0.291667 0.083333
vt 0.125000 0.166667
vt 0.208333 0.166667
vt 0.291667 0.166667
vt 0.125000 0.250000
vt 0.208333 0.250000
vt 0.291667 0.250000
vn -0.407223 -0.124495 0.904804
vn 0.068463 -0.094705 0.993148
vn 0.018825 -0.073917 0.997087
vn -0.372629 -0.017589 0.927814
vn 0.192458 -0.216796 0.957058
vn 0.155235 -0.203053 0.966784
vn -0.287278 -0.411105 0.865138
vn -0.259328 -0.323145 0.910124
vn -0.106693 0.075667 0.991409
vn -0.342919 0.106666 0.933289
vn 0.209232 0.146139 0.966884
vn -0.081074 0.032998 0.996162
vn -0.172916 0.344050 0.922892
vn -0.333251 0.229694 0.914431
vn 0.166876 0.524312 0.835014
vn 0.402264 0.586185 0.703258
vn -0.470947 0.869312 -0.150020
vn -0.121327 0.945410 0.302457
vn -0.256045 0.960650 0.107662
vn -0.708274 0.700717 -0.085691
vn 0.216494 0.797233 0.563515
vn 0.222714 0.933398 0.281364
vn 0.468724 0.673636 0.571412
vn 0.498118 0.773813 0.391271
vn -0.326032 0.945167 -0.019064
vn -0.798683 0.601748 0.002219
vn 0.117037 0.992823 -0.024575
vn 0.358723 0.932955 0.030212
vn -0.351433 0.936143 -0.011434
vn -0.745657 0.656054 0.116571
vn -0.044060 0.992912 -0.110381
vn 0.179167 0.961910 -0.206467
vn -0.156234 -0.095757 -0.983067
vn -0.170770 -0.352973 -0.919917
vn 0.045216 0.030282 -0.998518
vn -0.150115 0.223967 -0.962966
vn -0.164856 -0.322391 -0.932141
vn -0.055190 -0.126010 -0.990493
vn -0.158451 -0.274845 -0.948343
vn -0.235673 -0.242834 -0.941005
vn 0.158726 0.070834 -0.984778
vn -0.143414 0.172626 -0.974491
vn 0.050646 -0.034126 -0.998133
vn -0.202504 -0.104241 -0.973718
vn 0.252540 -0.115276 -0.960695
vn -0.128039 -0.214721 -0.968246
vn 0.207802 -0.059507 -0.976359
vn -0.018655 0.081745 -0.996479
vn -0.440694 -0.859579 -0.258673
vn -0.182006 -0.891994 -0.413787
vn -0.022740 -0.978401 -0.205459
vn -0.329058 -0.938684 -0.102926
vn 0.148141 -0.818759 -0.554697
vn 0.068834 -0.978588 -0.193978
vn 0.000000 -0.845414 -0.534111
vn 0.000000 -0.986876 -0.161480
vn -0.017601 -0.997488 0.068610
vn -0.282624 -0.959179 -0.009937
vn 0.106461 -0.974589 0.197086
vn 0.000000 -0.945263 0.326308
vn 0.041594 -0.984990 0.167527
vn -0.286213 -0.957610 0.032643
vn 0.237190 -0.900724 0.363918
vn 0.000000 -0.805726 0.592288
vn 0.855980 0.213432 -0.470897
vn 0.962736 0.248541 -0.106611
vn 0.993252 0.096755 0.063950
vn 0.960226 0.137120 -0.243237
vn 0.920608 0.207017 -0.331095
vn 0.944390 0.217828 -0.246329
vn 0.958353 0.180919 0.220970
vn 0.971779 0.217240 0.091940
vn 0.991088 -0.069660 0.113546
vn 0.991945 -0.085813 -0.093175
vn 0.970155 0.152530 -0.188504
vn 0.971135 0.235696 0.036649
vn 0.990256 -0.125749 0.059836
vn 0.984163 -0.164774 -0.065362
vn 0.991775 -0.011078 -0.127515
vn 0.969355 0.226263 0.095684
vn -0.987588 -0.122843 -0.097878
vn -0.990507 -0.037966 -0.132114
vn -0.995422 -0.015731 -0.094276
vn -0.989030 -0.080521 -0.123841
vn -0.993717 -0.040309 -0.104413
vn -0.992484 0.006474 -0.122201
vn -0.995170 -0.081217 -0.055138
vn -0.986363 -0.017316 -0.163668
vn -0.973384 0.227899 0.024199
vn -0.966563 0.232250 -0.108700
vn -0.961659 0.211174 -0.174977
vn -0.916185 0.163770 -0.365765
vn -0.719577 0.690252 0.075899
vn -0.732971 0.675121 0.083454
vn -0.826454 0.502939 -0.253034
vn -0.832741 0.331093 -0.443757
s 1
g pCube1
usemtl initialShadingGroup
f 1/1/1 2/2/2 6/6/3 5/5/4
f 2/2/2 3/3/5 7/7/6 6/6/3
f 3/3/5 4/4/7 8/8/8 7/7/6
f 5/5/4 6/6/3 10/10/9 9/9/10
f 6/6/3 7/7/6 11/11/11 10/10/9
f 7/7/6 8/8/8 12/12/12 11/11/11
f 9/9/10 10/10/9 14/14/13 13/13/14
f 10/10/9 11/11/11 15/15/15 14/14/13
f 11/11/11 12/12/12 16/16/16 15/15/15
s 2
f 13/13/17 14/14/18 18/18/19 17/17/20
f 14/14/18 15/15/21 19/19/22 18/18/19
f 15/15/21 16/16/23 20/20/24 19/19/22
f 17/17/20 18/18/19 22/22/25 21/21/26
f 18/18/19 19/19/22 23/23/27 22/22/25
f 19/19/22 20/20/24 24/24/28 23/23/27
f 21/21/26 22/22/25 26/26/29 25/25/30
f 22/22/25 23/23/27 27/27/31 26/26/29
f 23/23/27 24/24/28 28/28/32 27/27/31
s 3
f 25/25/33 26/26/34 30/30/35 29/29/36
f 26/26/34 27/27/37 31/31/38 30/30/35
f 27/27/37 28/28/39 32/32/40 31/31/38
f 29/29/36 30/30/35 34/34/41 33/33/42
f 30/30/35 31/31/38 35/35/43 34/34/41
f 31/31/38 32/32/40 36/36/44 35/35/43
f 33/33/42 34/34/41 38/38/45 37/37/46
f 34/34/41 35/35/43 39/39/47 38/38/45
f 35/35/43 36/36/44 40/40/48 39/39/47
s 4
f 37/37/49 38/38/50 42/42/51 41/41/52
f 38/38/50 39/39/53 43/43/54 42/42/51
f 39/39/53 40/40/55 44/44/56 43/43/54
f 41/41/52 42/42/51 46/46/57 45/45/58
f 42/42/51 43/43/54 47/47/59 46/46/57
f 43/43/54 44/44/56 48/48/60 47/47/59
f 45/45/58 46/46/57 2/50/61 1/49/62
f 46/46/57 47/47/59 3/51/63 2/50/61
f 47/47/59 48/48/60 4/52/64 3/51/63
s 5
f 44/54/65 40/53/66 36/56/67 49/57/68
f 48/55/69 44/54/65 49/57/68 50/58/70
f 4/4/71 48/55/69 50/58/70 8/8/72
f 49/57/68 36/56/67 32/59/73 51/60/74
f 50/58/70 49/57/68 51/60/74 52/61/75
f 8/8/72 50/58/70 52/61/75 12/12/76
f 51/60/74 32/59/73 28/62/77 24/63/78
f 52/61/75 51/60/74 24/63/78 20/64/79
f 12/12/76 52/61/75 20/64/79 16/16/80
s 6
f 37/65/81 41/66/82 53/69/83 33/68/84
f 41/66/82 45/67/85 54/70/86 53/69/83
f 45/67/85 1/1/87 5/5/88 54/70/86
f 33/68/84 53/69/83 55/72/89 29/71/90
f 53/69/83 54/70/86 56/73/91 55/72/89
f 54/70/86 5/5/88 9/9/92 56/73/91
f 29/71/90 55/72/89 21/75/93 25/74/94
f 55/72/89 56/73/91 17/76/95 21/75/93
f 56/73/91 9/9/92 13/13/96 17/76/95
